<?xml version="1.0" encoding="UTF-8" standalone="no"?>
<svg width="300px" height="300px" viewBox="0 0 300 300" version="1.1" xmlns="http://www.w3.org/2000/svg" xmlns:xlink="http://www.w3.org/1999/xlink" xmlns:sketch="http://www.bohemiancoding.com/sketch/ns">
    <!-- Generator: Sketch 3.0.1 (7597) - http://www.bohemiancoding.com/sketch -->
    <title>Slice 1</title>
    <description>Created with Sketch.</description>
    <defs></defs>
    <g id="Page-1" stroke="none" stroke-width="1" fill="none" fill-rule="evenodd" sketch:type="MSPage">
        <path d="M148.324426,212.15452 C148.626128,212.053658 148.927005,211.951775 149.22705,211.848877 L149.22705,211.848877 C162.967664,216.421722 178.523066,219 195,219 C250.78076,219 296,189.450793 296,153 C296,131.517198 280.293076,112.431665 255.974219,100.379733 C254.749017,61.9158573 210.010419,31 155,31 C107.233592,31 67.2118501,54.3096933 56.6975539,85.6304905 C25.300836,97.6718292 4,121.087249 4,148 C4,187.212217 49.2192403,219 105,219 C106.874108,219 108.736294,218.964118 110.585243,218.893277 L145.162667,166.093363 L115.222432,152.125653 L168.965576,88.0352977 L203.928089,102.840434 L170.082902,135.723037 L210.06314,154.558283 L148.324426,212.15452 Z" id="Oval-1" fill="#658ACC" sketch:type="MSShapeGroup"></path>
        <path d="M148.668064,212.020159 L62.8271618,292.075023 L110.588417,219.167354 L110.588417,219.167354 C123.533865,218.010359 135.822323,215.374396 147.099989,211.508093 C147.620457,211.681246 148.14316,211.851943 148.668064,212.020159 Z" id="Path-1" fill="#658ACC" sketch:type="MSShapeGroup"></path>
    </g>
</svg>