<?xml version="1.0" encoding="UTF-8" standalone="no"?>
<svg width="300px" height="300px" viewBox="0 0 300 300" version="1.1" xmlns="http://www.w3.org/2000/svg" xmlns:xlink="http://www.w3.org/1999/xlink" xmlns:sketch="http://www.bohemiancoding.com/sketch/ns">
    <!-- Generator: Sketch 3.0.1 (7597) - http://www.bohemiancoding.com/sketch -->
    <title>Slice 1</title>
    <description>Created with Sketch.</description>
    <defs></defs>
    <g id="Page-1" stroke="none" stroke-width="1" fill="none" fill-rule="evenodd" sketch:type="MSPage">
        <g id="Oval-1-+-Path-1-+-Oval-4" sketch:type="MSLayerGroup" transform="translate(19.000000, 37.000000)">
            <path d="M134.762099,170.238419 L60.578125,225.597656 L94.5482578,177.024995 L94.5482578,177.024995 C106.037042,175.516067 116.647269,172.311902 125.803637,167.806889 C128.694855,168.708269 131.684841,169.520944 134.762099,170.238419 Z" id="Path-1" fill="#658ACC" sketch:type="MSShapeGroup"></path>
            <path d="M61.0479155,56.4101368 C28.5886015,63.2701167 5,83.9966117 5,108.5 C5,138.599519 40.5933624,163 84.5,163 C101.775397,163 117.763826,159.22259 130.803637,152.806889 L130.803639,152.806889 C143.463721,156.753858 158.017577,159 173.5,159 C222.3772,159 262,136.614237 262,109 C262,90.6145465 244.435826,74.5467951 218.270319,65.8604987 C219.403723,62.1961724 220,58.3958227 220,54.5 C220,24.4004811 184.406638,0 140.5,0 C96.5933624,0 61,24.4004811 61,54.5 C61,55.1393433 61.016059,55.7761153 61.0479155,56.4101368 Z" id="Oval-1" fill="#658ACC" sketch:type="MSShapeGroup"></path>
            <path d="M101.09695,161.810576 C111.990926,160.224468 122.060134,157.108769 130.803637,152.806889 L130.803639,152.806889 C134.335866,153.908114 138.015512,154.876939 141.821613,155.701522 L182.792969,125.126953 L138.796875,116.181641 L162.052734,91.5332031 L116.882812,82.6777344 L107.134766,96.4921875 L78.1738281,132.240234 L118.474609,136.962891 L101.09695,161.810576 Z" id="Oval-4" fill="#F0F0F0" sketch:type="MSShapeGroup"></path>
        </g>
    </g>
</svg>